# xmcd
# 
# Track frame offsets:
#     150
#     16300
#     33562
#     50017
#     68972
#     83117
#     102820
#     136700
#     169980
#     202362
#     220325
#     239947
#     258770
#     276850
#     299232
#     313647
# 
# Disc length: 4652
# 
# Revision: 24
# Processed by: cddbd v1.5.2PL0 Copyright (c) Steve Scherf et al.
# Submitted via: fre:ac v1.0.27
# 
DISCID=01122a10
DTITLE=Eric Clapton - Story
DYEAR=1990
DGENRE=Blues
TTITLE0=Cocaine
TTITLE1=Lay Down Sally
TTITLE2=Wonderful Tonight
TTITLE3=Crossroads (Cream)
TTITLE4=After Midnight
TTITLE5=I Shot The Sheriff
TTITLE6=Further On Up The Road (Live)
TTITLE7=Rambling On My Mind (Live)
TTITLE8=Layla
TTITLE9=Next Time You See Her
TTITLE10=Knockin' On Heaven's Door
TTITLE11=Sunshine Of Your Love (Cream)
TTITLE12=Tulsa Time (Live)
TTITLE13=Let It Grow
TTITLE14=Steady Rollin Man
TTITLE15=Have You Ever Loved A Woman? (Live)
EXTD=YEAR: 1990
EXTT0=
EXTT1=
EXTT2=
EXTT3=
EXTT4=
EXTT5=
EXTT6=
EXTT7=
EXTT8=
EXTT9=
EXTT10=
EXTT11=
EXTT12=
EXTT13=
EXTT14=
EXTT15=
PLAYORDER=
